<?xml version="1.0" encoding="utf-8"?>
<!-- Generator: Adobe Illustrator 16.0.0, SVG Export Plug-In . SVG Version: 6.00 Build 0)  -->
<!DOCTYPE svg PUBLIC "-//W3C//DTD SVG 1.1//EN" "http://www.w3.org/Graphics/SVG/1.1/DTD/svg11.dtd">
<svg version="1.1" id="Layer_1" xmlns="http://www.w3.org/2000/svg" xmlns:xlink="http://www.w3.org/1999/xlink" x="0px" y="0px"
	 width="398px" height="360px" viewBox="0 0 398 360" enable-background="new 0 0 398 360" xml:space="preserve">
<pattern  x="-284" y="-106" width="72" height="72" patternUnits="userSpaceOnUse" id="Grid_.25_inch_Lines" viewBox="72.25 -144.25 72 72" overflow="visible">
	<g>
		<polygon fill="none" points="72.25,-144.25 144.25,-144.25 144.25,-72.25 72.25,-72.25 		"/>
		<g>
			<line fill="none" stroke="#231F20" stroke-width="0.3" x1="117.25" y1="-72.5" x2="117.25" y2="0"/>
			<line fill="none" stroke="#231F20" stroke-width="0.3" x1="81.25" y1="-72.5" x2="81.25" y2="0"/>
			<line fill="none" stroke="#231F20" stroke-width="0.3" x1="135.25" y1="-72.5" x2="135.25" y2="0"/>
			<line fill="none" stroke="#231F20" stroke-width="0.3" x1="99.25" y1="-72.5" x2="99.25" y2="0"/>
		</g>
		<g>
			<line fill="none" stroke="#231F20" stroke-width="0.3" x1="144" y1="-135.25" x2="216.5" y2="-135.25"/>
			<line fill="none" stroke="#231F20" stroke-width="0.3" x1="144" y1="-99.25" x2="216.5" y2="-99.25"/>
			<line fill="none" stroke="#231F20" stroke-width="0.3" x1="144" y1="-117.25" x2="216.5" y2="-117.25"/>
			<line fill="none" stroke="#231F20" stroke-width="0.3" x1="144" y1="-81.25" x2="216.5" y2="-81.25"/>
		</g>
		<g>
			<line fill="none" stroke="#231F20" stroke-width="0.3" x1="72" y1="-135.25" x2="144.5" y2="-135.25"/>
			<line fill="none" stroke="#231F20" stroke-width="0.3" x1="72" y1="-99.25" x2="144.5" y2="-99.25"/>
			<line fill="none" stroke="#231F20" stroke-width="0.3" x1="72" y1="-117.25" x2="144.5" y2="-117.25"/>
			<line fill="none" stroke="#231F20" stroke-width="0.3" x1="72" y1="-81.25" x2="144.5" y2="-81.25"/>
			<line fill="none" stroke="#231F20" stroke-width="0.3" x1="117.25" y1="-144.5" x2="117.25" y2="-72"/>
			<line fill="none" stroke="#231F20" stroke-width="0.3" x1="81.25" y1="-144.5" x2="81.25" y2="-72"/>
			<line fill="none" stroke="#231F20" stroke-width="0.3" x1="135.25" y1="-144.5" x2="135.25" y2="-72"/>
			<line fill="none" stroke="#231F20" stroke-width="0.3" x1="99.25" y1="-144.5" x2="99.25" y2="-72"/>
		</g>
		<g>
			<line fill="none" stroke="#231F20" stroke-width="0.3" x1="0" y1="-135.25" x2="72.5" y2="-135.25"/>
			<line fill="none" stroke="#231F20" stroke-width="0.3" x1="0" y1="-99.25" x2="72.5" y2="-99.25"/>
			<line fill="none" stroke="#231F20" stroke-width="0.3" x1="0" y1="-117.25" x2="72.5" y2="-117.25"/>
			<line fill="none" stroke="#231F20" stroke-width="0.3" x1="0" y1="-81.25" x2="72.5" y2="-81.25"/>
		</g>
		<g>
			<line fill="none" stroke="#231F20" stroke-width="0.3" x1="117.25" y1="-216.5" x2="117.25" y2="-144"/>
			<line fill="none" stroke="#231F20" stroke-width="0.3" x1="81.25" y1="-216.5" x2="81.25" y2="-144"/>
			<line fill="none" stroke="#231F20" stroke-width="0.3" x1="135.25" y1="-216.5" x2="135.25" y2="-144"/>
			<line fill="none" stroke="#231F20" stroke-width="0.3" x1="99.25" y1="-216.5" x2="99.25" y2="-144"/>
		</g>
	</g>
</pattern>
<rect fill="#FFD6D5" width="413" height="360"/>
<rect y="-1" fill="url(#Grid_.25_inch_Lines)" width="413" height="360"/>
<path opacity="0.6" fill="#FFFFFF" d="M282,319c0,6.627-5.373,12-12,12H35c-6.627,0-12-5.373-12-12V37c0-6.627,5.373-12,12-12h235
	c6.627,0,12,5.373,12,12V319z"/>
<ellipse opacity="0.7" fill="#22000B" cx="292" cy="68.5" rx="89" ry="54.5"/>
<text transform="matrix(1.3248 0 0 1 217 89.625)" fill="#FFFFFF" font-family="'MyriadPro-Regular'" font-size="68.6383">PDF</text>
<text transform="matrix(0.5696 -0.0015 0.0027 1 45.6177 202.541)" font-family="'Palatino-Roman'" font-size="110.0467">Resume</text>
</svg>
